<svg
	xmlns="http://www.w3.org/2000/svg" width="800" height="260" className="home-logo">
	<g>
		<title>background</title>
		<rect fill="#fff" id="canvas_background" height="262" width="802" y="-1" x="-1"/>
		<g display="none" overflow="visible" y="0" x="0" height="100%" width="100%" id="canvasGrid">
			<rect fill="url(#gridpattern)" stroke-width="0" y="0" x="0" height="100%" width="100%"/>
		</g>
	</g>
	<g>
		<title>Layer 1</title>
		<path stroke="null" id="svg_6" fill-rule="nonzero" fill="rgb(100%,69.019608%,23.137255%)" d="m64.36976,171.09596c3.51956,0 5.76039,-2.33825 6.45457,-4.11629l15.73446,-38.72728l1.15697,0l0,38.72728c0,2.3626 1.77804,4.11629 4.11629,4.11629l17.60995,0c2.33825,0 4.11629,-1.75369 4.11629,-4.11629l0,-73.95934c0,-2.33825 -1.77804,-4.07975 -4.11629,-4.07975l-24.64905,0c-3.53176,0 -5.7482,2.33825 -6.45457,4.07975l-20.54492,49.88267l-1.15693,0l-20.54496,-49.88267c-0.71853,-1.7415 -2.93497,-4.07975 -6.45454,-4.07975l-24.66124,0c-2.33825,0 -4.11629,1.7415 -4.11629,4.07975l0,73.95934c0,2.3626 1.77804,4.11629 4.11629,4.11629l17.60995,0c2.33825,0 4.11629,-1.75369 4.11629,-4.11629l0,-38.72728l1.15697,0l15.86842,38.72728c0.68199,1.77804 2.935,4.11629 6.45454,4.11629l14.18781,0zm130.52794,-4.11629c0.93773,2.3626 2.935,4.11629 5.27325,4.11629l19.9482,0c2.33825,0 3.99451,-1.75369 2.93497,-4.11629l-32.85728,-74.04458c-1.05951,-2.37479 -2.935,-3.99451 -5.27325,-3.99451l-24.06449,0c-2.33825,0 -4.23806,1.7415 -5.2976,4.07975l-32.86943,73.95934c-1.05954,2.3626 0.59672,4.11629 2.93497,4.11629l18.80343,0c2.33825,0 4.33552,-1.75369 5.26106,-4.11629l4.11629,-10.57085l36.98578,0l4.1041,10.57085zm-22.88317,-53.41442l1.15693,0l9.38954,23.47993l-20.54492,0l9.99845,-23.47993zm98.92503,32.86947l14.68711,20.54496c1.18132,1.77804 3.39779,4.11629 7.05129,4.11629l20.54496,0c2.92281,0 4.20152,-2.33825 2.92281,-4.11629l-28.18081,-38.13053l25.81818,-35.82882c1.30309,-1.7415 0,-4.07975 -2.93497,-4.07975l-19.9482,0c-3.53172,0 -5.86997,2.33825 -7.05129,4.07975l-12.90907,19.40018l-1.14478,0l-12.94561,-19.40018c-1.15697,-1.7415 -3.49522,-4.07975 -7.01475,-4.07975l-19.9482,0c-2.95935,0 -4.23809,2.33825 -2.95935,4.07975l25.84253,35.82882l-28.18078,38.13053c-1.27874,1.77804 0,4.11629 2.92281,4.11629l20.54492,0c3.65353,0 5.87,-2.33825 7.05129,-4.11629l14.68714,-20.54496l1.14478,0zm118.69053,24.66124c3.49518,0 5.73601,-2.33825 6.45454,-4.11629l15.71011,-38.72728l1.19351,0l0,38.72728c0,2.3626 1.7415,4.11629 4.07975,4.11629l17.60995,0c2.37479,0 4.11629,-1.75369 4.11629,-4.11629l0,-73.95934c0,-2.33825 -1.7415,-4.07975 -4.11629,-4.07975l-24.6247,0c-3.51956,0 -5.77255,2.33825 -6.45454,4.07975l-20.54496,49.88267l-1.18128,0l-20.54496,-49.88267c-0.69415,-1.7415 -2.93497,-4.07975 -6.45454,-4.07975l-24.63686,0c-2.3626,0 -4.11629,1.7415 -4.11629,4.07975l0,73.95934c0,2.3626 1.75369,4.11629 4.11629,4.11629l17.58557,0c2.37479,0 4.11632,-1.75369 4.11632,-4.11629l0,-38.72728l1.18128,0l15.84408,38.72728c0.68199,1.77804 2.935,4.11629 6.45457,4.11629l14.21216,0zm118.41044,-78.07563c0,-2.33825 -1.74153,-4.07975 -4.11629,-4.07975l-48.10463,0c-2.33825,0 -4.11629,1.7415 -4.11629,4.07975l0,11.75214c0,2.33825 1.77804,4.11629 4.11629,4.11629l11.16758,0l0,42.24685l-11.16758,0c-2.33825,0 -4.11629,1.75369 -4.11629,4.11629l0,11.72779c0,2.3626 1.77804,4.11629 4.11629,4.11629l48.10463,0c2.37476,0 4.11629,-1.75369 4.11629,-4.11629l0,-11.72779c0,-2.3626 -1.74153,-4.11629 -4.11629,-4.11629l-11.13107,0l0,-42.24685l11.13107,0c2.37476,0 4.11629,-1.77804 4.11629,-4.11629l0,-11.75214zm72.76584,42.86792l-29.33771,-42.86792c-1.15697,-1.7415 -3.51956,-4.07975 -6.45457,-4.07975l-19.94817,0c-2.33825,0 -4.11632,1.7415 -4.11632,4.07975l0,73.95934c0,2.3626 1.77807,4.11629 4.11632,4.11629l17.60992,0c2.33825,0 4.11632,-1.75369 4.11632,-4.11629l0,-42.84357l1.15693,0l29.36209,42.84357c1.15693,1.77804 3.49518,4.11629 6.45454,4.11629l19.96036,0c2.33825,0 4.07978,-1.75369 4.07978,-4.11629l0,-73.95934c0,-2.33825 -1.74153,-4.07975 -4.07978,-4.07975l-17.62211,0c-2.33825,0 -4.11629,1.7415 -4.11629,4.07975l0,42.86792l-1.18132,0zm124.42657,-42.86792c0,-2.33825 -1.74153,-4.07975 -4.11629,-4.07975l-71.58456,0c-2.33825,0 -4.11629,1.7415 -4.11629,4.07975l0,73.95934c0,2.3626 1.77804,4.11629 4.11629,4.11629l71.58456,0c2.37476,0 4.11629,-1.75369 4.11629,-4.11629l0,-11.72779c0,-2.3626 -1.74153,-4.11629 -4.11629,-4.11629l-49.88267,0l0,-11.75217l36.97356,0c2.37479,0 4.11629,-1.7415 4.11629,-4.07975l0,-11.75214c0,-2.33825 -1.7415,-4.11629 -4.11629,-4.11629l-36.97356,0l0,-10.5465l49.88267,0c2.37476,0 4.11629,-1.77804 4.11629,-4.11629l0,-11.75214zm36.97356,19.96036c0,-3.53172 3.53176,-7.01475 14.09039,-7.01475c8.79282,0 12.44632,3.48303 13.50586,5.26106c1.65626,2.935 3.51953,4.71304 7.0391,4.71304l14.66276,0c2.92281,0 4.70088,-1.77804 4.70088,-4.71304c0,-11.75214 -12.9091,-24.66121 -39.9086,-24.66121c-28.74099,0 -41.08985,12.34889 -41.08985,26.4149c0,32.89385 56.93395,21.72624 56.93395,33.45403c0,3.51956 -4.11632,7.63585 -15.84411,7.63585c-11.75214,0 -15.27167,-3.51953 -17.0132,-6.45454c-1.65626,-2.8132 -3.53172,-4.71304 -7.05129,-4.71304l-14.68711,0c-2.92281,0 -4.6765,1.77804 -4.6765,4.71304c0,12.90907 12.90907,25.81818 43.4281,25.81818c29.93449,0 42.84357,-12.9091 42.84357,-26.99949c0,-32.86947 -56.93395,-21.70186 -56.93395,-33.45403zm0,0"/>
	</g>
</svg>
